<?xml version="1.0" encoding="UTF-8"?><svg id="katman_2" xmlns="http://www.w3.org/2000/svg" xmlns:xlink="http://www.w3.org/1999/xlink" viewBox="0 0 177 177"><defs><style>.cls-1{fill:url(#Adsız_degrade_26-2);}.cls-2{fill:url(#Adsız_degrade_26);}.cls-3{fill:url(#Adsız_degrade_26-3);}.cls-4{fill:url(#Adsız_degrade_101);}</style><linearGradient id="Adsız_degrade_101" x1="-9.37" y1="91.91" x2="944.07" y2="58.69" gradientUnits="userSpaceOnUse"><stop offset="0" stop-color="#fff"/><stop offset="1" stop-color="#e6e6e6"/></linearGradient><linearGradient id="Adsız_degrade_26" x1="12.79" y1="127.02" x2="167.38" y2="127.02" gradientUnits="userSpaceOnUse"><stop offset="0" stop-color="#94008d"/><stop offset=".36" stop-color="#59017f"/><stop offset=".79" stop-color="#190270"/><stop offset="1" stop-color="#00036a"/></linearGradient><linearGradient id="Adsız_degrade_26-2" x1="-5.36" y1="47.26" x2="195.43" y2="47.26" xlink:href="#Adsız_degrade_26"/><linearGradient id="Adsız_degrade_26-3" x1="-46.94" y1="86.95" x2="240.61" y2="86.95" xlink:href="#Adsız_degrade_26"/></defs><g id="katman_1"><path class="cls-4" d="m177,88.5c0,48.88-39.62,88.5-88.5,88.5-17.91,0-34.58-5.32-48.51-14.48-8.27-5.41-15.56-12.18-21.59-19.99C6.86,127.58,0,108.85,0,88.5,0,39.62,39.62,0,88.5,0c17.29,0,33.41,4.95,47.04,13.53,8.87,5.57,16.68,12.67,23.06,20.94,11.54,14.95,18.4,33.68,18.4,54.03Z"/><path class="cls-2" d="m82.23,110.23l-34.93,46.86c-1.88,2.52-4.43,4.39-7.31,5.43-8.27-5.41-15.56-12.18-21.59-19.99h4.99c3.22,0,6.26-1.49,8.22-4.05l32.79-41.93,3.86-5.02,13.97,18.7Z"/><path class="cls-1" d="m135.53,13.53c-5.05-.04-9.81,2.33-12.83,6.38l-16.43,22.05-15.4,20.65.07.1,13.77,18.29,32.68-42.48c1.96-2.55,5-4.05,8.22-4.05h21.11l9.78-20-40.97-.94Z"/><polygon class="cls-3" points="87.86 66.89 87.77 66.77 75.42 50.37 43.8 50.37 71.45 87.37 85.22 105.8 98.47 123.53 130.5 123.53 101.56 85.09 87.86 66.89"/></g></svg>