<?xml version="1.0" encoding="UTF-8"?><svg id="katman_2" xmlns="http://www.w3.org/2000/svg" xmlns:xlink="http://www.w3.org/1999/xlink" viewBox="0 0 815.18 157.87"><defs><style>.cls-1{fill:url(#Adsız_degrade_26-4);}.cls-2{fill:url(#Adsız_degrade_26-7);}.cls-3{fill:url(#Adsız_degrade_26-2);}.cls-4{fill:url(#Adsız_degrade_26);}.cls-5{fill:url(#Adsız_degrade_26-9);}.cls-6{fill:url(#Adsız_degrade_26-3);}.cls-7{fill:url(#Adsız_degrade_26-6);}.cls-8{fill:url(#Adsız_degrade_26-5);}.cls-9{fill:url(#Adsız_degrade_26-8);}</style><linearGradient id="Adsız_degrade_26" x1="-6.68" y1="81.49" x2="835.1" y2="52.16" gradientUnits="userSpaceOnUse"><stop offset="0" stop-color="#94008d"/><stop offset=".36" stop-color="#59017f"/><stop offset=".79" stop-color="#190270"/><stop offset="1" stop-color="#00036a"/></linearGradient><linearGradient id="Adsız_degrade_26-2" x1="-6.5" y1="86.7" x2="835.28" y2="57.37" xlink:href="#Adsız_degrade_26"/><linearGradient id="Adsız_degrade_26-3" x1="-6.09" y1="98.4" x2="835.69" y2="69.06" xlink:href="#Adsız_degrade_26"/><linearGradient id="Adsız_degrade_26-4" x1="-5.27" y1="120.84" x2="836.46" y2="91.51" xlink:href="#Adsız_degrade_26"/><linearGradient id="Adsız_degrade_26-5" x1="-4.6" y1="141.32" x2="837.18" y2="111.99" xlink:href="#Adsız_degrade_26"/><linearGradient id="Adsız_degrade_26-6" x1="-7.31" y1="63.56" x2="834.47" y2="34.23" xlink:href="#Adsız_degrade_26"/><linearGradient id="Adsız_degrade_26-7" x1="-5.96" y1="102.06" x2="835.81" y2="72.73" xlink:href="#Adsız_degrade_26"/><linearGradient id="Adsız_degrade_26-8" x1="-6.96" y1="73.44" x2="834.82" y2="44.11" xlink:href="#Adsız_degrade_26"/><linearGradient id="Adsız_degrade_26-9" x1="-6.82" y1="77.46" x2="834.96" y2="48.13" xlink:href="#Adsız_degrade_26"/></defs><g id="katman_1"><polygon class="cls-4" points="31.38 121.13 32.44 124.09 57.69 124.09 57.69 124.09 57.7 124.09 66.52 100.1 78.32 68.01 90.91 102.71 98.67 124.09 98.67 124.09 98.67 124.09 123.75 124.09 123.75 124.09 123.76 124.09 156.37 34.12 156.36 34.12 156.36 34.11 133.28 34.11 119.56 72.63 111.43 95.45 103.25 72.05 89.97 34.11 67.73 34.11 67.73 34.12 67.73 34.12 45.7 94.83 24.58 34.11 0 34.11 0 34.12 0 34.12 31.38 121.13"/><path class="cls-3" d="m168.24,102.94c3.28,5.4,7.62,9.91,12.99,13.53,1.55,1.05,3.18,2.04,4.91,2.94,7.69,4.01,16.67,6.02,26.93,6.02,3.94,0,7.66-.3,11.16-.89,3.72-.63,7.19-1.58,10.41-2.87,1.33-.53,2.6-1.13,3.83-1.76,4.56-2.34,8.47-5.34,11.72-9.02h0s0,0,0,0l-13.88-15.05c-3.01,2.9-6.33,5.08-9.95,6.52-2,.8-4.16,1.37-6.48,1.73-1.89.29-3.88.44-5.98.44-1.84,0-3.59-.12-5.26-.34-3.27-.44-6.2-1.29-8.79-2.58-3.14-1.57-5.73-3.71-7.79-6.4-.5-.65-.97-1.33-1.41-2.04-.3-.5-.58-1.01-.84-1.53-.04-.08-.07-.17-.11-.25-.21-.42-.4-.85-.58-1.29-.08-.19-.14-.38-.21-.56-.13-.35-.26-.7-.38-1.06-.07-.2-.12-.41-.18-.62-.11-.38-.22-.77-.31-1.17-.02-.07-.03-.13-.04-.2h68.05c.1-.99.2-2.07.29-3.2.01-.13.02-.26.04-.39.02-.24.03-.45.05-.68.07-1,.12-1.93.12-2.74,0-4.53-.47-8.75-1.37-12.67-1.03-4.47-2.62-8.57-4.82-12.25-2.62-4.39-5.84-8.15-9.66-11.28-2.19-1.8-4.57-3.4-7.15-4.78-3.72-1.99-7.69-3.45-11.89-4.39-3.79-.85-7.77-1.29-11.94-1.29-6.19,0-11.95.93-17.3,2.74-2.55.86-5.02,1.91-7.38,3.19-7.3,3.96-12.99,9.45-17.06,16.48-4.07,7.02-6.1,14.99-6.1,23.91,0,2.08.13,4.11.36,6.09.76,6.49,2.75,12.41,6,17.75Zm19.81-33.67c.03-.12.06-.23.09-.35.12-.48.25-.95.4-1.41.06-.2.13-.39.2-.59.13-.39.28-.77.43-1.14.08-.19.15-.39.24-.58.18-.42.38-.83.59-1.23.06-.11.1-.22.16-.33.57-1.06,1.22-2.04,1.93-2.96,1.64-2.12,3.64-3.87,6.01-5.23,2.59-1.48,5.48-2.4,8.68-2.76,1.01-.11,2.04-.17,3.11-.17,1.88,0,3.65.18,5.33.53,2.31.48,4.43,1.27,6.37,2.4,1.45.84,2.75,1.84,3.93,2.96.77.74,1.48,1.53,2.14,2.39.66.86,1.26,1.78,1.8,2.76.29.54.56,1.09.8,1.65.05.11.09.23.14.34.19.45.36.92.52,1.39.05.15.1.29.15.44.18.57.34,1.16.47,1.75,0,.02,0,.03.01.05.15.67.26,1.36.35,2.06h0s-44.22,0-44.22,0h0c.1-.68.23-1.34.38-1.98Z"/><path class="cls-6" d="m499.19,69.81c-.54,2.97-.83,6.06-.83,9.29,0,2.23.13,4.4.4,6.51.79,6.32,2.78,12.1,5.96,17.32,3.12,5.14,7.12,9.47,11.98,13,1.73,1.26,3.55,2.42,5.5,3.47,7.42,4.01,15.86,6.02,25.34,6.02s18.12-2.01,25.59-6.02c7.47-4.02,13.32-9.48,17.56-16.39,1.57-2.57,2.85-5.28,3.84-8.14,1.67-4.84,2.51-10.1,2.51-15.77s-.89-11.18-2.64-16.13c-.97-2.75-2.2-5.38-3.71-7.87-4.24-6.96-10.09-12.43-17.56-16.39-2.72-1.44-5.58-2.61-8.58-3.52-5.24-1.6-10.91-2.41-17.02-2.41-7.25,0-13.9,1.17-19.94,3.49-1.85.71-3.65,1.52-5.4,2.44-3.22,1.72-6.11,3.74-8.73,6.02-3.42,2.98-6.34,6.43-8.74,10.37-2.61,4.3-4.41,8.99-5.41,14.07-.01.07-.03.14-.05.21-.03.14-.04.29-.07.43Zm28.53-4.08c1.55-2.76,3.48-5.03,5.82-6.82.78-.59,1.6-1.14,2.46-1.62,2.73-1.54,5.76-2.47,9.06-2.79.87-.08,1.75-.14,2.65-.14,1.17,0,2.3.08,3.4.22,2.99.38,5.74,1.29,8.23,2.71,1.1.63,2.13,1.36,3.09,2.18,1.34,1.13,2.54,2.43,3.6,3.91.53.74,1.04,1.52,1.5,2.35.26.46.5.92.72,1.4,0,0,0,.01,0,.02.02.05.04.11.07.16,1.53,3.36,2.3,7.29,2.3,11.81,0,3.93-.61,7.47-1.82,10.61-.37.96-.79,1.88-1.27,2.77-2.06,3.79-4.79,6.66-8.19,8.61-.61.35-1.25.66-1.89.95-2.42,1.08-5.08,1.72-7.98,1.91-.63.04-1.26.07-1.91.07-.85,0-1.69-.05-2.51-.13-2.47-.24-4.79-.83-6.97-1.79-.7-.31-1.38-.64-2.05-1.02-2.16-1.22-4.05-2.8-5.67-4.73-.97-1.16-1.84-2.46-2.61-3.88-.17-.32-.33-.64-.48-.97-1.73-3.58-2.61-7.71-2.61-12.41,0-4.03.62-7.6,1.84-10.7.37-.93.78-1.83,1.26-2.67Z"/><path class="cls-1" d="m727.48,34.11l25.31,61.05,12.57-30.06,12.96-30.99h24.91l-23.01,54.08-17.62,41.41c-1.37,3.47-2.83,6.55-4.39,9.29-.1.17-.19.35-.28.51,0,0,0,0,0,.01-1.66,2.85-3.41,5.29-5.28,7.32-3.74,4.07-7.86,6.94-12.38,8.61-.73.27-1.48.51-2.24.74-2.4.72-4.92,1.22-7.57,1.5-1.67.18-3.39.27-5.16.27-3.95,0-7.89-.54-11.83-1.62-.63-.17-1.25-.35-1.88-.55-3.36-1.06-6.28-2.43-8.79-4.09-.92-.61-1.78-1.25-2.59-1.93l9.53-18.73c.43.41.89.79,1.35,1.16,1.68,1.33,3.54,2.41,5.59,3.19.94.36,1.88.64,2.83.87,1.69.41,3.4.64,5.11.64,1.35,0,2.61-.13,3.76-.38.83-.18,1.61-.43,2.34-.74.92-.39,1.76-.88,2.52-1.48,1.68-1.34,3.24-3.37,4.69-6.07.42-.79.84-1.64,1.24-2.55l.32-.76-15.56-36.39-22.14-53.32c-.29-.71.24-1.48,1-1.47l24.68.46Z"/><path class="cls-8" d="m630.08,88.7l-32.79,41.93c-1.96,2.56-5,4.05-8.22,4.05H28.96l-9.78,20,580.97.94c5.05.04,9.81-2.33,12.83-6.38l34.93-46.86-13.97-18.7-3.86,5.02Z"/><path class="cls-7" d="m701.21,5.68c-5.05-.04-9.81,2.33-12.83,6.38l-16.43,22.05-15.4,20.65.07.1,13.77,18.29,32.68-42.48c1.96-2.55,5-4.05,8.22-4.05h94.11l9.78-20-113.97-.94Z"/><polygon class="cls-2" points="653.54 59.04 653.45 58.92 641.1 42.52 609.48 42.52 637.13 79.52 650.9 97.95 664.15 115.68 696.18 115.68 667.24 77.24 653.54 59.04"/><path class="cls-9" d="m298.85,113.78c.06.07.13.13.18.21.32.42.71.79,1.06,1.17.22.24.44.49.68.72.33.33.68.63,1.02.95.29.26.57.53.86.78.37.31.77.6,1.15.89.28.21.56.44.85.64.69.48,1.4.93,2.14,1.35,2.15,1.23,4.43,2.23,6.86,3,0,0,0,0,.01,0,.15.05.3.08.45.13,3.93,1.2,8.2,1.81,12.83,1.81,5.01,0,9.69-.68,14.07-1.98,1.48-.44,2.92-.95,4.33-1.54,1.58-.66,3.11-1.4,4.6-2.24,1.43-.81,2.78-1.71,4.08-2.66,4.85-3.54,8.86-8.03,11.98-13.48,3.96-6.91,5.94-15.05,5.94-24.42s-1.98-17.5-5.94-24.42c-.42-.73-.86-1.43-1.31-2.13-2.35-3.65-5.14-6.82-8.35-9.53-1.97-1.67-4.1-3.17-6.4-4.48-6.75-3.85-14.41-5.77-23-5.77-5.13,0-9.82.81-14.11,2.38-1.96.72-3.84,1.58-5.63,2.63-.71.41-1.39.86-2.06,1.33-.06.04-.12.09-.18.13-.58.41-1.14.84-1.69,1.29-.28.23-.55.48-.82.72-.31.28-.62.54-.92.83-.34.33-.67.68-1,1.02-.17.18-.36.36-.53.54V0h0s-26.09,0-26.09,0h0v124.09h0s24.92,0,24.92,0v-10.31Zm3.76-48.06c1.58-2.82,3.58-5.13,5.98-6.94.73-.55,1.49-1.05,2.29-1.5,2.67-1.51,5.63-2.43,8.85-2.77.93-.1,1.88-.16,2.86-.16,1.09,0,2.16.06,3.19.19,3.07.37,5.89,1.28,8.43,2.74,1.28.73,2.46,1.58,3.54,2.56,1.09.97,2.08,2.07,2.98,3.29.6.81,1.16,1.68,1.67,2.6.35.62.65,1.27.94,1.93,1.43,3.28,2.15,7.09,2.15,11.45,0,3.77-.56,7.18-1.68,10.23-.4,1.1-.87,2.15-1.42,3.15-2.06,3.79-4.79,6.66-8.19,8.61-.76.44-1.54.81-2.34,1.15-2.11.89-4.39,1.44-6.82,1.66-.8.07-1.62.12-2.46.12-1.02,0-2.01-.06-2.98-.16-.07,0-.14,0-.2-.02-.02,0-.03,0-.05,0-2.31-.28-4.47-.87-6.5-1.76-.68-.3-1.34-.62-1.98-.98-1.91-1.08-3.6-2.44-5.08-4.08-1.2-1.33-2.28-2.83-3.2-4.53-.24-.45-.47-.9-.68-1.37-1.6-3.48-2.41-7.49-2.41-12.01,0-3.92.58-7.4,1.73-10.44.39-1.03.84-2.01,1.36-2.94Z"/><path class="cls-5" d="m415.58,124.09h0v-44.49c0-1.81.1-3.49.29-5.07.4-3.39,1.22-6.28,2.47-8.64.82-1.54,1.79-2.91,2.9-4.12,1.38-1.5,2.97-2.76,4.79-3.74.21-.11.43-.22.65-.32,1.24-.62,2.55-1.12,3.91-1.49,2.06-.57,4.24-.86,6.57-.86,5.8,0,10.29,1.73,13.46,5.18.23.25.43.53.64.8,2.73,3.46,4.12,8.53,4.12,15.26v47.5h26.09s0,0,0,0v-51.51c0-9.14-1.62-16.64-4.85-22.49-.68-1.24-1.43-2.39-2.23-3.5-2.95-4.12-6.63-7.31-11.07-9.55-1.47-.74-3-1.38-4.58-1.93-4.45-1.55-9.31-2.33-14.58-2.33-7.69,0-14.55,1.62-20.57,4.85-1.63.87-3.15,1.85-4.58,2.93-.28.21-.53.44-.8.66s-.55.42-.81.65c-.63.54-1.24,1.11-1.83,1.7V0h-26.09s0,0,0,0v124.09h26.09Z"/></g></svg>